<?xml version="1.0" encoding="utf-8"?>
<!-- Generator: Adobe Illustrator 25.1.0, SVG Export Plug-In . SVG Version: 6.00 Build 0)  -->
<svg version="1.1" id="Layer_1" xmlns="http://www.w3.org/2000/svg" xmlns:xlink="http://www.w3.org/1999/xlink" x="0px" y="0px"
	 viewBox="0 0 20 20" style="enable-background:new 0 0 20 20;" xml:space="preserve">
<style type="text/css">
	.st0{fill:#42A5F5;}
	.st1{fill:#2196F3;}
	.st2{fill:#1E88E5;}
	.st3{fill:#1976D2;}
	.st4{fill:#1565C0;}
	.st5{fill:#64B5F6;}
	.st6{fill:#BBDEFB;}
	.st7{fill:#90CAF9;}
	.st8{fill:#E3F2FD;}
</style>
<g>
	<rect x="5" y="10" class="st0" width="2" height="2"/>
	<rect x="5" y="8" class="st1" width="2" height="2"/>
	<rect x="13" y="8" class="st1" width="2" height="2"/>
	<rect x="7" y="10" class="st0" width="2" height="2"/>
	<rect x="9" y="10" class="st0" width="2" height="2"/>
	<rect x="11" y="10" class="st0" width="2" height="2"/>
	<path class="st2" d="M5,6l2,2H5V6z"/>
	<path class="st2" d="M13,6l2,2h-2V6z"/>
	<rect x="5" y="4" class="st3" width="2" height="2"/>
	<rect x="7" y="4" class="st3" width="2" height="2"/>
	<rect x="9" y="4" class="st3" width="2" height="2"/>
	<path class="st4" d="M5,2l2,2H5V2z"/>
	<path class="st3" d="M11,4l2,2h-2V4z"/>
	<rect x="5" y="12" class="st5" width="2" height="2"/>
	<rect x="5" y="16" class="st6" width="2" height="2"/>
	<rect x="5" y="14" class="st7" width="2" height="2"/>
	<path class="st8" d="M5,18h2v2L5,18z"/>
	<rect x="7" y="18" class="st8" width="2" height="2"/>
	<rect x="9" y="18" class="st8" width="2" height="2"/>
	<rect x="11" y="18" class="st8" width="2" height="2"/>
	<rect x="13" y="16" class="st6" width="2" height="2"/>
	<rect x="13" y="14" class="st7" width="2" height="2"/>
	<path class="st5" d="M13,12l2,2h-2V12z"/>
</g>
</svg>
