<?xml version="1.0" encoding="utf-8"?>
<!-- Generator: Adobe Illustrator 25.1.0, SVG Export Plug-In . SVG Version: 6.00 Build 0)  -->
<svg version="1.1" id="Layer_1" xmlns="http://www.w3.org/2000/svg" xmlns:xlink="http://www.w3.org/1999/xlink" x="0px" y="0px"
	 viewBox="0 0 20 20" style="enable-background:new 0 0 20 20;" xml:space="preserve">
<style type="text/css">
	.st0{fill:#42A5F5;}
	.st1{fill:#71B1E1;}
	.st2{fill:#94C7EB;}
	.st3{fill:#BDDDF4;}
	.st4{fill:#E4F3FB;}
	.st5{fill:#2196F3;}
	.st6{fill:#1E88E5;}
	.st7{fill:#1976D2;}
	.st8{fill:#5B3625;}
	.st9{fill:#1565C0;}
</style>
<rect x="10" y="10" class="st0" width="2" height="2"/>
<rect x="12" y="12" class="st1" width="2" height="2"/>
<rect x="12" y="14" class="st2" width="2" height="2"/>
<rect x="12" y="16" class="st3" width="2" height="2"/>
<path class="st4" d="M12,18h2v2L12,18z"/>
<rect x="12" y="10" class="st0" width="2" height="2"/>
<rect x="12" y="8" class="st5" width="2" height="2"/>
<rect x="12" y="6" class="st6" width="2" height="2"/>
<path class="st7" d="M12,4l2,2h-2V4z"/>
<rect x="6" y="12" class="st8" width="2" height="2"/>
<rect x="6" y="10" class="st0" width="2" height="2"/>
<path class="st0" d="M8,10h2v2L8,10z"/>
<rect x="6" y="14" class="st2" width="2" height="2"/>
<rect x="6" y="16" class="st3" width="2" height="2"/>
<path class="st4" d="M6,18h2v2L6,18z"/>
<path class="st5" d="M6,8l2,2H6V8z"/>
<path class="st6" d="M6,6h2v2H6V6z"/>
<path class="st7" d="M6,4h2v2H6V4z"/>
<path class="st7" d="M10,4h2v2h-2V4z"/>
<path class="st7" d="M8,4h2v2H8V4z"/>
<path class="st9" d="M6,2l2,2H6V2z"/>
</svg>
